<?xml version="1.0" encoding="utf-8"?>
<!-- Generator: Adobe Illustrator 16.0.0, SVG Export Plug-In . SVG Version: 6.00 Build 0)  -->
<!DOCTYPE svg PUBLIC "-//W3C//DTD SVG 1.1//EN" "http://www.w3.org/Graphics/SVG/1.1/DTD/svg11.dtd">
<svg version="1.1" id="Layer_1" xmlns="http://www.w3.org/2000/svg" xmlns:xlink="http://www.w3.org/1999/xlink" x="0px" y="0px"
	 width="248.242px" height="93.467px" viewBox="0 0 248.242 93.467" enable-background="new 0 0 248.242 93.467"
	 xml:space="preserve">
<g>
	<path fill="#808080" d="M40.561,67.882c-0.262,0-0.508-0.038-0.739-0.114c-0.231-0.075-0.44-0.187-0.625-0.334
		c-0.186-0.147-0.344-0.328-0.473-0.541c-0.129-0.214-0.222-0.462-0.276-0.745h0.962c0.085,0.261,0.225,0.469,0.419,0.623
		c0.194,0.154,0.444,0.231,0.75,0.231c0.338,0,0.613-0.085,0.824-0.254c0.211-0.17,0.316-0.397,0.316-0.684
		c0-0.306-0.09-0.533-0.271-0.682c-0.18-0.148-0.445-0.223-0.795-0.223h-0.768v-0.813h0.785c0.306,0,0.542-0.073,0.708-0.219
		c0.167-0.146,0.25-0.364,0.25-0.653c0-0.28-0.094-0.496-0.281-0.646c-0.187-0.15-0.44-0.226-0.76-0.226
		c-0.322,0-0.579,0.086-0.771,0.258c-0.191,0.173-0.327,0.4-0.407,0.684h-0.962c0.11-0.581,0.358-1.023,0.745-1.327
		c0.387-0.305,0.854-0.457,1.402-0.457c0.281,0,0.541,0.038,0.78,0.114c0.24,0.075,0.445,0.184,0.618,0.324
		c0.172,0.14,0.308,0.312,0.407,0.516c0.099,0.204,0.148,0.43,0.148,0.678c0,0.309-0.072,0.574-0.217,0.797
		s-0.349,0.399-0.613,0.528c0.295,0.119,0.522,0.295,0.682,0.529c0.16,0.233,0.239,0.528,0.239,0.884
		c0,0.267-0.051,0.509-0.155,0.725c-0.103,0.216-0.249,0.4-0.436,0.554c-0.188,0.152-0.408,0.27-0.661,0.351
		C41.133,67.841,40.858,67.882,40.561,67.882z"/>
	<path fill="#808080" d="M44.686,67.882c-0.474-0.006-0.842-0.133-1.106-0.38c-0.273-0.242-0.409-0.553-0.409-0.93
		c0-0.36,0.119-0.659,0.355-0.896c0.231-0.236,0.578-0.36,1.041-0.371h1.193v-0.45c0.006-0.377-0.288-0.561-0.879-0.55
		c-0.204,0-0.373,0.022-0.508,0.066c-0.13,0.053-0.231,0.141-0.306,0.265l-0.677-0.517c0.328-0.43,0.811-0.639,1.449-0.628
		c0.54-0.005,0.971,0.097,1.293,0.306c0.316,0.21,0.48,0.578,0.491,1.107v2.928H45.76v-0.38h-0.016
		c-0.08,0.146-0.204,0.253-0.372,0.322C45.218,67.846,44.989,67.882,44.686,67.882z M44.793,67.072
		c0.364,0.011,0.618-0.032,0.764-0.128c0.135-0.091,0.202-0.298,0.202-0.62v-0.31h-1.032c-0.507,0.012-0.754,0.184-0.743,0.517
		c0,0.146,0.064,0.27,0.194,0.371C44.308,67.016,44.513,67.072,44.793,67.072z"/>
	<path fill="#808080" d="M47.23,67.019h0.492c0.074-0.185,0.141-0.377,0.2-0.578s0.107-0.434,0.143-0.698s0.064-0.574,0.084-0.929
		c0.021-0.355,0.031-0.778,0.031-1.269h2.891v3.474h0.591v1.912h-0.81v-1.099h-2.808v1.099H47.23V67.019z M50.208,67.019v-2.664
		h-1.21c0,0.35-0.01,0.657-0.029,0.923c-0.019,0.266-0.046,0.504-0.081,0.715c-0.034,0.211-0.075,0.399-0.122,0.565
		c-0.047,0.167-0.097,0.32-0.149,0.461H50.208z"/>
	<path fill="#808080" d="M53.458,67.882c-0.474-0.006-0.842-0.133-1.106-0.38c-0.273-0.242-0.409-0.553-0.409-0.93
		c0-0.36,0.119-0.659,0.355-0.896c0.231-0.236,0.578-0.36,1.041-0.371h1.193v-0.45c0.006-0.377-0.288-0.561-0.879-0.55
		c-0.204,0-0.373,0.022-0.508,0.066c-0.13,0.053-0.231,0.141-0.306,0.265l-0.677-0.517c0.328-0.43,0.811-0.639,1.449-0.628
		c0.54-0.005,0.971,0.097,1.293,0.306c0.316,0.21,0.48,0.578,0.491,1.107v2.928h-0.863v-0.38h-0.016
		c-0.08,0.146-0.204,0.253-0.372,0.322C53.99,67.846,53.761,67.882,53.458,67.882z M53.565,67.072
		c0.364,0.011,0.618-0.032,0.764-0.128c0.135-0.091,0.202-0.298,0.202-0.62v-0.31H53.5c-0.507,0.012-0.754,0.184-0.743,0.517
		c0,0.146,0.064,0.27,0.194,0.371C53.08,67.016,53.285,67.072,53.565,67.072z"/>
	<path fill="#808080" d="M56.51,63.545h0.863v2.908l1.862-2.908h0.863v4.287h-0.863v-2.953l-1.862,2.953H56.51V63.545z
		 M57.452,61.761c0.058,0.227,0.157,0.386,0.297,0.479c0.146,0.097,0.332,0.145,0.558,0.145c0.209,0.006,0.39-0.04,0.541-0.137
		c0.157-0.088,0.262-0.25,0.314-0.487h0.508c-0.03,0.355-0.161,0.637-0.392,0.843c-0.231,0.226-0.555,0.339-0.971,0.339
		c-0.407,0-0.726-0.113-0.954-0.339c-0.237-0.206-0.373-0.487-0.409-0.843H57.452z"/>
	<path fill="#808080" d="M64.857,67.882c-0.512,0-0.957-0.172-1.334-0.517c-0.402-0.344-0.606-0.901-0.611-1.673
		c0.011-0.784,0.215-1.349,0.611-1.693c0.383-0.35,0.827-0.519,1.334-0.508c0.333,0.012,0.626,0.08,0.88,0.207
		c0.261,0.135,0.481,0.315,0.661,0.541l-0.636,0.565c-0.217-0.295-0.506-0.444-0.867-0.45c-0.741-0.011-1.114,0.436-1.119,1.338
		c0.005,0.896,0.378,1.337,1.119,1.326c0.366-0.011,0.655-0.16,0.867-0.446l0.636,0.566c-0.193,0.214-0.413,0.39-0.661,0.524
		C65.478,67.809,65.185,67.882,64.857,67.882z"/>
	<path fill="#808080" d="M66.996,63.545h2.057c0.394,0,0.708,0.104,0.941,0.312c0.234,0.207,0.351,0.486,0.351,0.836
		c0,0.43-0.2,0.736-0.599,0.921c0.215,0.097,0.38,0.227,0.496,0.391c0.116,0.163,0.173,0.369,0.173,0.617
		c0,0.372-0.114,0.666-0.343,0.884s-0.546,0.326-0.954,0.326h-2.123V63.545z M68.892,65.305c0.405,0,0.607-0.178,0.607-0.533
		c0-0.165-0.051-0.291-0.155-0.378c-0.103-0.086-0.254-0.13-0.452-0.13h-1.032v1.041H68.892z M68.95,67.113
		c0.192,0,0.344-0.052,0.454-0.157c0.11-0.104,0.165-0.243,0.165-0.417c0-0.182-0.055-0.322-0.165-0.421
		c-0.11-0.1-0.262-0.148-0.454-0.148h-1.09v1.144H68.95z"/>
	<path fill="#808080" d="M72.877,67.882c-0.317,0-0.585-0.062-0.806-0.187c-0.217-0.112-0.383-0.233-0.496-0.363
		c-0.165-0.179-0.284-0.384-0.355-0.615c-0.074-0.226-0.112-0.569-0.112-1.032c0-0.457,0.038-0.804,0.112-1.041
		c0.077-0.242,0.195-0.443,0.355-0.603c0.119-0.141,0.284-0.268,0.496-0.38c0.215-0.113,0.483-0.17,0.806-0.17
		c0.333,0,0.607,0.057,0.822,0.17c0.207,0.112,0.366,0.239,0.479,0.38c0.165,0.159,0.286,0.36,0.363,0.603
		c0.069,0.248,0.104,0.595,0.104,1.041c0,0.451-0.035,0.796-0.104,1.032c-0.077,0.237-0.198,0.442-0.363,0.615
		c-0.028,0.028-0.058,0.059-0.091,0.093c-0.033,0.035-0.07,0.065-0.112,0.094c-0.077,0.068-0.169,0.128-0.276,0.177
		C73.479,67.819,73.205,67.882,72.877,67.882z M72.877,67.019c0.151,0,0.289-0.03,0.413-0.091c0.124-0.058,0.218-0.131,0.281-0.219
		c0.091-0.118,0.147-0.242,0.169-0.372c0.011-0.068,0.021-0.157,0.029-0.265c0.008-0.107,0.013-0.233,0.013-0.38
		c0-0.151-0.004-0.282-0.013-0.392c-0.008-0.11-0.018-0.203-0.029-0.277c-0.022-0.129-0.078-0.247-0.169-0.354
		c-0.063-0.091-0.157-0.167-0.281-0.228c-0.113-0.058-0.25-0.087-0.413-0.087c-0.152,0-0.287,0.029-0.405,0.087
		c-0.113,0.055-0.209,0.131-0.289,0.228c-0.075,0.096-0.128,0.214-0.161,0.354c-0.033,0.146-0.05,0.366-0.05,0.661
		c0,0.297,0.017,0.515,0.05,0.652c0.033,0.141,0.086,0.265,0.161,0.372c0.085,0.088,0.182,0.161,0.289,0.219
		C72.607,66.988,72.742,67.019,72.877,67.019z"/>
	<path fill="#808080" d="M75.549,63.545h0.863v2.908l1.862-2.908h0.863v4.287h-0.863v-2.953l-1.862,2.953h-0.863V63.545z
		 M76.491,61.761c0.058,0.227,0.157,0.386,0.297,0.479c0.146,0.097,0.332,0.145,0.558,0.145c0.209,0.006,0.39-0.04,0.541-0.137
		c0.157-0.088,0.262-0.25,0.314-0.487h0.508c-0.03,0.355-0.161,0.637-0.392,0.843c-0.231,0.226-0.555,0.339-0.971,0.339
		c-0.407,0-0.726-0.113-0.954-0.339c-0.237-0.206-0.373-0.487-0.409-0.843H76.491z"/>
	<path fill="#808080" d="M82.281,63.545h2.057c0.394,0,0.708,0.104,0.941,0.312c0.234,0.207,0.351,0.486,0.351,0.836
		c0,0.43-0.2,0.736-0.599,0.921c0.215,0.097,0.38,0.227,0.496,0.391c0.116,0.163,0.173,0.369,0.173,0.617
		c0,0.372-0.114,0.666-0.343,0.884s-0.546,0.326-0.954,0.326h-2.123V63.545z M84.176,65.305c0.405,0,0.607-0.178,0.607-0.533
		c0-0.165-0.051-0.291-0.155-0.378c-0.103-0.086-0.254-0.13-0.452-0.13h-1.032v1.041H84.176z M84.234,67.113
		c0.192,0,0.344-0.052,0.454-0.157c0.11-0.104,0.165-0.243,0.165-0.417c0-0.182-0.055-0.322-0.165-0.421
		c-0.11-0.1-0.262-0.148-0.454-0.148h-1.09v1.144H84.234z"/>
	<path fill="#808080" d="M88.162,67.882c-0.317,0-0.585-0.062-0.806-0.187c-0.217-0.112-0.383-0.233-0.496-0.363
		c-0.165-0.179-0.284-0.384-0.355-0.615c-0.074-0.226-0.112-0.569-0.112-1.032c0-0.457,0.038-0.804,0.112-1.041
		c0.077-0.242,0.195-0.443,0.355-0.603c0.119-0.141,0.284-0.268,0.496-0.38c0.215-0.113,0.483-0.17,0.806-0.17
		c0.333,0,0.607,0.057,0.822,0.17c0.207,0.112,0.366,0.239,0.479,0.38c0.165,0.159,0.286,0.36,0.363,0.603
		c0.069,0.248,0.104,0.595,0.104,1.041c0,0.451-0.035,0.796-0.104,1.032c-0.077,0.237-0.198,0.442-0.363,0.615
		c-0.028,0.028-0.058,0.059-0.091,0.093c-0.033,0.035-0.07,0.065-0.112,0.094c-0.077,0.068-0.169,0.128-0.276,0.177
		C88.763,67.819,88.489,67.882,88.162,67.882z M88.162,67.019c0.151,0,0.289-0.03,0.413-0.091c0.124-0.058,0.218-0.131,0.281-0.219
		c0.091-0.118,0.147-0.242,0.169-0.372c0.011-0.068,0.021-0.157,0.029-0.265c0.008-0.107,0.013-0.233,0.013-0.38
		c0-0.151-0.004-0.282-0.013-0.392c-0.008-0.11-0.018-0.203-0.029-0.277c-0.022-0.129-0.078-0.247-0.169-0.354
		c-0.063-0.091-0.157-0.167-0.281-0.228c-0.113-0.058-0.25-0.087-0.413-0.087c-0.152,0-0.287,0.029-0.405,0.087
		c-0.113,0.055-0.209,0.131-0.289,0.228c-0.075,0.096-0.128,0.214-0.161,0.354c-0.033,0.146-0.05,0.366-0.05,0.661
		c0,0.297,0.017,0.515,0.05,0.652c0.033,0.141,0.086,0.265,0.161,0.372c0.085,0.088,0.182,0.161,0.289,0.219
		C87.892,66.988,88.027,67.019,88.162,67.019z"/>
	<path fill="#808080" d="M90.834,63.545h3.428v4.287h-0.863v-3.478h-1.701v3.478h-0.863V63.545z"/>
	<path fill="#808080" d="M95.377,63.545h0.863v0.446c0.289-0.322,0.658-0.488,1.106-0.5c0.521,0.006,0.905,0.193,1.152,0.562
		c0.124,0.141,0.205,0.318,0.244,0.533c0.022,0.113,0.038,0.261,0.047,0.444c0.01,0.183,0.015,0.403,0.015,0.662
		c0,0.254-0.005,0.471-0.015,0.65c-0.009,0.181-0.025,0.327-0.047,0.44c-0.039,0.215-0.12,0.395-0.244,0.541
		c-0.124,0.171-0.279,0.303-0.467,0.396c-0.184,0.097-0.413,0.149-0.686,0.161c-0.212,0-0.409-0.049-0.59-0.145
		c-0.188-0.094-0.359-0.215-0.516-0.363v2.192h-0.863V63.545z M97.086,67.019c0.198,0,0.359-0.039,0.483-0.116
		c0.118-0.074,0.203-0.176,0.252-0.305c0.058-0.119,0.095-0.262,0.111-0.43c0.006-0.08,0.008-0.159,0.008-0.237
		c0-0.079,0-0.158,0-0.238c0-0.085,0-0.17,0-0.254s-0.002-0.166-0.008-0.245c-0.016-0.168-0.054-0.312-0.111-0.43
		c-0.049-0.124-0.134-0.226-0.252-0.306c-0.118-0.069-0.279-0.104-0.483-0.104c-0.192,0-0.345,0.04-0.458,0.12
		c-0.113,0.074-0.2,0.179-0.26,0.313c-0.052,0.124-0.087,0.265-0.104,0.422c-0.017,0.165-0.024,0.326-0.024,0.482
		c0,0.151,0.008,0.304,0.024,0.455c0.017,0.165,0.051,0.31,0.104,0.434c0.061,0.135,0.147,0.239,0.26,0.313
		C96.736,66.978,96.888,67.019,97.086,67.019z"/>
	<path fill="#808080" d="M101.324,67.882c-0.317,0-0.585-0.062-0.806-0.187c-0.217-0.112-0.383-0.233-0.496-0.363
		c-0.165-0.179-0.284-0.384-0.355-0.615c-0.074-0.226-0.112-0.569-0.112-1.032c0-0.457,0.038-0.804,0.112-1.041
		c0.077-0.242,0.195-0.443,0.355-0.603c0.119-0.141,0.284-0.268,0.496-0.38c0.215-0.113,0.483-0.17,0.806-0.17
		c0.333,0,0.607,0.057,0.822,0.17c0.207,0.112,0.366,0.239,0.479,0.38c0.165,0.159,0.286,0.36,0.363,0.603
		c0.069,0.248,0.104,0.595,0.104,1.041c0,0.451-0.035,0.796-0.104,1.032c-0.077,0.237-0.198,0.442-0.363,0.615
		c-0.028,0.028-0.058,0.059-0.091,0.093c-0.033,0.035-0.07,0.065-0.112,0.094c-0.077,0.068-0.169,0.128-0.276,0.177
		C101.925,67.819,101.651,67.882,101.324,67.882z M101.324,67.019c0.151,0,0.289-0.03,0.413-0.091
		c0.124-0.058,0.218-0.131,0.281-0.219c0.091-0.118,0.147-0.242,0.169-0.372c0.011-0.068,0.021-0.157,0.029-0.265
		c0.008-0.107,0.013-0.233,0.013-0.38c0-0.151-0.004-0.282-0.013-0.392c-0.008-0.11-0.018-0.203-0.029-0.277
		c-0.022-0.129-0.078-0.247-0.169-0.354c-0.063-0.091-0.157-0.167-0.281-0.228c-0.113-0.058-0.25-0.087-0.413-0.087
		c-0.152,0-0.287,0.029-0.405,0.087c-0.113,0.055-0.209,0.131-0.289,0.228c-0.075,0.096-0.128,0.214-0.161,0.354
		c-0.033,0.146-0.05,0.366-0.05,0.661c0,0.297,0.017,0.515,0.05,0.652c0.033,0.141,0.086,0.265,0.161,0.372
		c0.085,0.088,0.182,0.161,0.289,0.219C101.054,66.988,101.189,67.019,101.324,67.019z"/>
	<path fill="#808080" d="M105.611,67.882c-0.512,0-0.957-0.172-1.334-0.517c-0.402-0.344-0.606-0.901-0.611-1.673
		c0.011-0.784,0.215-1.349,0.611-1.693c0.383-0.35,0.827-0.519,1.334-0.508c0.333,0.012,0.626,0.08,0.88,0.207
		c0.261,0.135,0.481,0.315,0.661,0.541l-0.636,0.565c-0.217-0.295-0.506-0.444-0.867-0.45c-0.741-0.011-1.114,0.436-1.119,1.338
		c0.005,0.896,0.378,1.337,1.119,1.326c0.366-0.011,0.655-0.16,0.867-0.446l0.636,0.566c-0.193,0.214-0.413,0.39-0.661,0.524
		C106.231,67.809,105.938,67.882,105.611,67.882z"/>
	<path fill="#808080" d="M109.778,63.545h2.784v0.81h-1.92v3.478h-0.863V63.545z"/>
	<path fill="#808080" d="M114.767,67.882c-0.317,0-0.585-0.062-0.806-0.187c-0.217-0.112-0.383-0.233-0.496-0.363
		c-0.165-0.179-0.284-0.384-0.355-0.615c-0.074-0.226-0.112-0.569-0.112-1.032c0-0.457,0.038-0.804,0.112-1.041
		c0.077-0.242,0.195-0.443,0.355-0.603c0.119-0.141,0.284-0.268,0.496-0.38c0.215-0.113,0.483-0.17,0.806-0.17
		c0.333,0,0.607,0.057,0.822,0.17c0.207,0.112,0.366,0.239,0.479,0.38c0.165,0.159,0.286,0.36,0.363,0.603
		c0.069,0.248,0.104,0.595,0.104,1.041c0,0.451-0.035,0.796-0.104,1.032c-0.077,0.237-0.198,0.442-0.363,0.615
		c-0.028,0.028-0.058,0.059-0.091,0.093c-0.033,0.035-0.07,0.065-0.112,0.094c-0.077,0.068-0.169,0.128-0.276,0.177
		C115.368,67.819,115.094,67.882,114.767,67.882z M114.767,67.019c0.151,0,0.289-0.03,0.413-0.091
		c0.124-0.058,0.218-0.131,0.281-0.219c0.091-0.118,0.147-0.242,0.169-0.372c0.011-0.068,0.021-0.157,0.029-0.265
		c0.008-0.107,0.013-0.233,0.013-0.38c0-0.151-0.004-0.282-0.013-0.392c-0.008-0.11-0.018-0.203-0.029-0.277
		c-0.022-0.129-0.078-0.247-0.169-0.354c-0.063-0.091-0.157-0.167-0.281-0.228c-0.113-0.058-0.25-0.087-0.413-0.087
		c-0.152,0-0.287,0.029-0.405,0.087c-0.113,0.055-0.209,0.131-0.289,0.228c-0.075,0.096-0.128,0.214-0.161,0.354
		c-0.033,0.146-0.05,0.366-0.05,0.661c0,0.297,0.017,0.515,0.05,0.652c0.033,0.141,0.086,0.265,0.161,0.372
		c0.085,0.088,0.182,0.161,0.289,0.219C114.497,66.988,114.631,67.019,114.767,67.019z"/>
	<path fill="#808080" d="M119.054,67.882c-0.512,0-0.957-0.172-1.334-0.517c-0.402-0.344-0.606-0.901-0.611-1.673
		c0.011-0.784,0.215-1.349,0.611-1.693c0.383-0.35,0.827-0.519,1.334-0.508c0.333,0.012,0.626,0.08,0.88,0.207
		c0.261,0.135,0.481,0.315,0.661,0.541l-0.636,0.565c-0.217-0.295-0.506-0.444-0.867-0.45c-0.741-0.011-1.114,0.436-1.119,1.338
		c0.005,0.896,0.378,1.337,1.119,1.326c0.366-0.011,0.655-0.16,0.867-0.446l0.636,0.566c-0.193,0.214-0.413,0.39-0.661,0.524
		C119.674,67.809,119.381,67.882,119.054,67.882z"/>
	<path fill="#808080" d="M121.11,68.753h0.252c0.113,0,0.217-0.03,0.313-0.091c0.091-0.058,0.159-0.151,0.203-0.281l0.235-0.718
		l-1.536-4.118h0.913l1.016,3.003h0.016l1.012-3.003h0.917l-1.846,5.175c-0.118,0.322-0.282,0.545-0.491,0.669
		c-0.212,0.119-0.452,0.178-0.719,0.178h-0.285V68.753z"/>
	<path fill="#808080" d="M124.438,67.019h0.492c0.074-0.185,0.142-0.377,0.2-0.578s0.107-0.434,0.143-0.698s0.064-0.574,0.084-0.929
		c0.021-0.355,0.031-0.778,0.031-1.269h2.892v3.474h0.59v1.912h-0.809v-1.099h-2.809v1.099h-0.814V67.019z M127.417,67.019v-2.664
		h-1.21c0,0.35-0.01,0.657-0.029,0.923s-0.046,0.504-0.08,0.715c-0.035,0.211-0.075,0.399-0.122,0.565
		c-0.047,0.167-0.097,0.32-0.148,0.461H127.417z"/>
	<path fill="#808080" d="M130.667,67.882c-0.474-0.006-0.843-0.133-1.106-0.38c-0.272-0.242-0.409-0.553-0.409-0.93
		c0-0.36,0.118-0.659,0.355-0.896c0.231-0.236,0.578-0.36,1.041-0.371h1.193v-0.45c0.005-0.377-0.288-0.561-0.88-0.55
		c-0.204,0-0.373,0.022-0.508,0.066c-0.13,0.053-0.231,0.141-0.306,0.265l-0.678-0.517c0.328-0.43,0.812-0.639,1.45-0.628
		c0.539-0.005,0.97,0.097,1.292,0.306c0.317,0.21,0.48,0.578,0.492,1.107v2.928h-0.863v-0.38h-0.017
		c-0.08,0.146-0.204,0.253-0.372,0.322C131.198,67.846,130.969,67.882,130.667,67.882z M130.774,67.072
		c0.363,0.011,0.618-0.032,0.765-0.128c0.135-0.091,0.202-0.298,0.202-0.62v-0.31h-1.033c-0.506,0.012-0.754,0.184-0.743,0.517
		c0,0.146,0.064,0.27,0.194,0.371C130.289,67.016,130.494,67.072,130.774,67.072z"/>
	<path fill="#808080" d="M133.719,63.545h0.863v0.446c0.289-0.322,0.658-0.488,1.106-0.5c0.521,0.006,0.904,0.193,1.152,0.562
		c0.124,0.141,0.205,0.318,0.244,0.533c0.021,0.113,0.037,0.261,0.047,0.444c0.01,0.183,0.015,0.403,0.015,0.662
		c0,0.254-0.005,0.471-0.015,0.65c-0.01,0.181-0.025,0.327-0.047,0.44c-0.039,0.215-0.12,0.395-0.244,0.541
		c-0.124,0.171-0.279,0.303-0.467,0.396c-0.185,0.097-0.413,0.149-0.686,0.161c-0.212,0-0.409-0.049-0.591-0.145
		c-0.187-0.094-0.359-0.215-0.516-0.363v2.192h-0.863V63.545z M135.429,67.019c0.198,0,0.359-0.039,0.483-0.116
		c0.118-0.074,0.202-0.176,0.252-0.305c0.058-0.119,0.095-0.262,0.111-0.43c0.005-0.08,0.008-0.159,0.008-0.237
		c0-0.079,0-0.158,0-0.238c0-0.085,0-0.17,0-0.254s-0.003-0.166-0.008-0.245c-0.017-0.168-0.054-0.312-0.111-0.43
		c-0.05-0.124-0.134-0.226-0.252-0.306c-0.119-0.069-0.28-0.104-0.483-0.104c-0.193,0-0.346,0.04-0.459,0.12
		c-0.112,0.074-0.199,0.179-0.26,0.313c-0.053,0.124-0.087,0.265-0.104,0.422c-0.017,0.165-0.024,0.326-0.024,0.482
		c0,0.151,0.008,0.304,0.024,0.455c0.017,0.165,0.051,0.31,0.104,0.434c0.061,0.135,0.147,0.239,0.26,0.313
		C135.078,66.978,135.231,67.019,135.429,67.019z"/>
	<path fill="#808080" d="M139.723,67.882c-0.512,0-0.956-0.172-1.334-0.517c-0.401-0.344-0.605-0.901-0.61-1.673
		c0.011-0.784,0.215-1.349,0.61-1.693c0.383-0.35,0.828-0.519,1.334-0.508c0.334,0.012,0.627,0.08,0.88,0.207
		c0.262,0.135,0.482,0.315,0.661,0.541l-0.636,0.565c-0.218-0.295-0.507-0.444-0.867-0.45c-0.741-0.011-1.114,0.436-1.12,1.338
		c0.006,0.896,0.379,1.337,1.12,1.326c0.365-0.011,0.654-0.16,0.867-0.446l0.636,0.566c-0.192,0.214-0.413,0.39-0.661,0.524
		C140.344,67.809,140.051,67.882,139.723,67.882z"/>
	<path fill="#808080" d="M142.717,64.354H141.4v-0.81h3.449v0.81h-1.269v3.478h-0.863V64.354z"/>
	<path fill="#808080" d="M145.501,63.545h2.057c0.394,0,0.708,0.104,0.941,0.312c0.234,0.207,0.352,0.486,0.352,0.836
		c0,0.43-0.2,0.736-0.6,0.921c0.215,0.097,0.381,0.227,0.496,0.391c0.115,0.163,0.174,0.369,0.174,0.617
		c0,0.372-0.114,0.666-0.343,0.884c-0.229,0.218-0.547,0.326-0.954,0.326h-2.123V63.545z M147.397,65.305
		c0.404,0,0.607-0.178,0.607-0.533c0-0.165-0.052-0.291-0.155-0.378c-0.104-0.086-0.254-0.13-0.452-0.13h-1.032v1.041H147.397z
		 M147.455,67.113c0.193,0,0.345-0.052,0.454-0.157c0.11-0.104,0.166-0.243,0.166-0.417c0-0.182-0.056-0.322-0.166-0.421
		c-0.109-0.1-0.261-0.148-0.454-0.148h-1.09v1.144H147.455z"/>
	<path fill="#808080" d="M149.743,68.753h0.252c0.113,0,0.218-0.03,0.314-0.091c0.091-0.058,0.158-0.151,0.202-0.281l0.235-0.718
		l-1.536-4.118h0.912l1.017,3.003h0.017l1.012-3.003h0.917l-1.847,5.175c-0.118,0.322-0.282,0.545-0.491,0.669
		c-0.212,0.119-0.451,0.178-0.719,0.178h-0.285V68.753z"/>
	<path fill="#808080" d="M155.607,63.545h0.863v2.908l1.862-2.908h0.863v4.287h-0.863v-2.953l-1.862,2.953h-0.863V63.545z"/>
	<path fill="#808080" d="M162.339,63.545h3.428v4.287h-0.863v-3.478h-1.701v3.478h-0.863V63.545z"/>
	<path fill="#808080" d="M168.439,67.882c-0.316,0-0.585-0.062-0.805-0.187c-0.218-0.112-0.383-0.233-0.496-0.363
		c-0.165-0.179-0.283-0.384-0.355-0.615c-0.074-0.226-0.111-0.569-0.111-1.032c0-0.457,0.037-0.804,0.111-1.041
		c0.077-0.242,0.196-0.443,0.355-0.603c0.118-0.141,0.283-0.268,0.496-0.38c0.215-0.113,0.482-0.17,0.805-0.17
		c0.333,0,0.607,0.057,0.822,0.17c0.206,0.112,0.366,0.239,0.479,0.38c0.166,0.159,0.287,0.36,0.364,0.603
		c0.068,0.248,0.103,0.595,0.103,1.041c0,0.451-0.034,0.796-0.103,1.032c-0.077,0.237-0.198,0.442-0.364,0.615
		c-0.027,0.028-0.058,0.059-0.091,0.093c-0.032,0.035-0.07,0.065-0.111,0.094c-0.077,0.068-0.169,0.128-0.276,0.177
		C169.041,67.819,168.767,67.882,168.439,67.882z M168.439,67.019c0.151,0,0.289-0.03,0.413-0.091
		c0.124-0.058,0.218-0.131,0.281-0.219c0.091-0.118,0.147-0.242,0.169-0.372c0.011-0.068,0.021-0.157,0.029-0.265
		c0.008-0.107,0.012-0.233,0.012-0.38c0-0.151-0.004-0.282-0.012-0.392c-0.009-0.11-0.019-0.203-0.029-0.277
		c-0.021-0.129-0.078-0.247-0.169-0.354c-0.063-0.091-0.157-0.167-0.281-0.228c-0.112-0.058-0.25-0.087-0.413-0.087
		c-0.151,0-0.286,0.029-0.404,0.087c-0.113,0.055-0.209,0.131-0.289,0.228c-0.074,0.096-0.128,0.214-0.161,0.354
		c-0.033,0.146-0.05,0.366-0.05,0.661c0,0.297,0.017,0.515,0.05,0.652c0.033,0.141,0.087,0.265,0.161,0.372
		c0.085,0.088,0.182,0.161,0.289,0.219C168.169,66.988,168.304,67.019,168.439,67.019z"/>
	<path fill="#808080" d="M170.603,67.019h0.136c0.091,0,0.176-0.007,0.254-0.021c0.079-0.014,0.15-0.056,0.215-0.126
		c0.065-0.07,0.121-0.177,0.17-0.32c0.048-0.144,0.089-0.344,0.124-0.601c0.034-0.258,0.06-0.583,0.076-0.975
		c0.017-0.393,0.024-0.87,0.024-1.432h2.903v4.287h-0.863v-3.478h-1.218c0,0.521-0.015,0.968-0.044,1.343
		c-0.028,0.374-0.07,0.689-0.124,0.945s-0.122,0.463-0.206,0.622c-0.084,0.158-0.181,0.278-0.291,0.361
		c-0.11,0.082-0.234,0.138-0.372,0.165s-0.289,0.041-0.454,0.041h-0.33V67.019z"/>
	<path fill="#808080" d="M175.534,68.753h0.252c0.113,0,0.218-0.03,0.314-0.091c0.091-0.058,0.158-0.151,0.202-0.281l0.235-0.718
		l-1.536-4.118h0.912l1.017,3.003h0.017l1.012-3.003h0.917l-1.847,5.175c-0.118,0.322-0.282,0.545-0.491,0.669
		c-0.212,0.119-0.451,0.178-0.719,0.178h-0.285V68.753z"/>
	<path fill="#808080" d="M181.679,66.267c-0.146,0.027-0.323,0.058-0.533,0.089c-0.209,0.032-0.44,0.048-0.693,0.048
		c-0.355,0-0.647-0.104-0.876-0.31c-0.229-0.207-0.343-0.529-0.343-0.967v-1.582h0.863v1.413c0,0.23,0.056,0.394,0.165,0.489
		c0.11,0.095,0.265,0.143,0.463,0.143c0.179,0,0.354-0.012,0.522-0.033c0.169-0.022,0.313-0.044,0.432-0.066v-1.945h0.863v4.287
		h-0.863V66.267z"/>
	<path fill="#808080" d="M183.658,63.545h0.863v2.908l1.862-2.908h0.863v4.287h-0.863v-2.953l-1.862,2.953h-0.863V63.545z"/>
	<path fill="#808080" d="M191.946,67.882c-0.316,0-0.585-0.062-0.805-0.187c-0.218-0.112-0.383-0.233-0.496-0.363
		c-0.165-0.179-0.283-0.384-0.355-0.615c-0.074-0.226-0.111-0.569-0.111-1.032c0-0.457,0.037-0.804,0.111-1.041
		c0.077-0.242,0.196-0.443,0.355-0.603c0.118-0.141,0.283-0.268,0.496-0.38c0.215-0.113,0.482-0.17,0.805-0.17
		c0.333,0,0.607,0.057,0.822,0.17c0.206,0.112,0.366,0.239,0.479,0.38c0.166,0.159,0.287,0.36,0.364,0.603
		c0.068,0.248,0.103,0.595,0.103,1.041c0,0.451-0.034,0.796-0.103,1.032c-0.077,0.237-0.198,0.442-0.364,0.615
		c-0.027,0.028-0.058,0.059-0.091,0.093c-0.032,0.035-0.07,0.065-0.111,0.094c-0.077,0.068-0.169,0.128-0.276,0.177
		C192.547,67.819,192.274,67.882,191.946,67.882z M191.946,67.019c0.151,0,0.289-0.03,0.413-0.091
		c0.124-0.058,0.218-0.131,0.281-0.219c0.091-0.118,0.147-0.242,0.169-0.372c0.011-0.068,0.021-0.157,0.029-0.265
		c0.008-0.107,0.012-0.233,0.012-0.38c0-0.151-0.004-0.282-0.012-0.392c-0.009-0.11-0.019-0.203-0.029-0.277
		c-0.021-0.129-0.078-0.247-0.169-0.354c-0.063-0.091-0.157-0.167-0.281-0.228c-0.112-0.058-0.25-0.087-0.413-0.087
		c-0.151,0-0.286,0.029-0.404,0.087c-0.113,0.055-0.209,0.131-0.289,0.228c-0.074,0.096-0.128,0.214-0.161,0.354
		c-0.033,0.146-0.05,0.366-0.05,0.661c0,0.297,0.017,0.515,0.05,0.652c0.033,0.141,0.087,0.265,0.161,0.372
		c0.085,0.088,0.182,0.161,0.289,0.219C191.676,66.988,191.811,67.019,191.946,67.019z"/>
	<path fill="#808080" d="M195.473,64.354h-1.317v-0.81h3.449v0.81h-1.269v3.478h-0.863V64.354z"/>
	<path fill="#808080" d="M198.256,63.545h2.057c0.394,0,0.708,0.104,0.941,0.312c0.234,0.207,0.352,0.486,0.352,0.836
		c0,0.43-0.2,0.736-0.6,0.921c0.215,0.097,0.381,0.227,0.496,0.391c0.115,0.163,0.174,0.369,0.174,0.617
		c0,0.372-0.114,0.666-0.343,0.884c-0.229,0.218-0.547,0.326-0.954,0.326h-2.123V63.545z M200.152,65.305
		c0.404,0,0.607-0.178,0.607-0.533c0-0.165-0.052-0.291-0.155-0.378c-0.104-0.086-0.254-0.13-0.452-0.13h-1.032v1.041H200.152z
		 M200.209,67.113c0.193,0,0.345-0.052,0.454-0.157c0.11-0.104,0.166-0.243,0.166-0.417c0-0.182-0.056-0.322-0.166-0.421
		c-0.109-0.1-0.261-0.148-0.454-0.148h-1.09v1.144H200.209z"/>
	<path fill="#808080" d="M204.274,67.882c-0.231,0-0.452-0.033-0.661-0.1c-0.097-0.03-0.201-0.078-0.313-0.145
		c-0.103-0.044-0.202-0.108-0.302-0.194c-0.188-0.17-0.335-0.394-0.441-0.669c-0.124-0.27-0.187-0.627-0.187-1.073
		c0-0.436,0.054-0.787,0.161-1.058c0.113-0.3,0.251-0.525,0.413-0.677c0.165-0.163,0.356-0.284,0.574-0.364
		c0.204-0.074,0.41-0.111,0.619-0.111c0.49,0.012,0.904,0.173,1.243,0.483c0.339,0.316,0.514,0.76,0.524,1.33v0.71h-2.672
		c0,0.345,0.1,0.606,0.298,0.785c0.189,0.182,0.432,0.272,0.727,0.272c0.35,0,0.662-0.139,0.938-0.417l0.628,0.532
		C205.376,67.656,204.86,67.887,204.274,67.882z M205.042,65.305c-0.011-0.328-0.101-0.58-0.268-0.756
		c-0.166-0.162-0.378-0.244-0.637-0.244s-0.471,0.082-0.636,0.244c-0.162,0.176-0.252,0.428-0.269,0.756H205.042z"/>
	<path fill="#808080" d="M207.665,64.354h-1.317v-0.81h3.449v0.81h-1.269v3.478h-0.863V64.354z"/>
</g>
<path d="M44.585,44.742v9.61h-5.85V25.104h8.356c3.983,0,6.858,0.822,8.628,2.466c1.769,1.644,2.653,4.095,2.653,7.354
	s-0.885,5.71-2.653,7.354c-1.77,1.644-4.645,2.465-8.628,2.465H44.585z M47.092,40.982c1.894,0,3.272-0.46,4.137-1.379
	c0.862-0.92,1.295-2.479,1.295-4.68s-0.433-3.761-1.295-4.68c-0.864-0.919-2.243-1.379-4.137-1.379h-2.507v12.117H47.092z"/>
<path d="M80.727,43.907c0,3.55-0.843,6.186-2.528,7.906s-4.046,2.581-7.082,2.581s-5.396-0.86-7.082-2.581s-2.527-4.356-2.527-7.906
	s0.842-6.186,2.527-7.906s4.046-2.581,7.082-2.581s5.396,0.86,7.082,2.581S80.727,40.357,80.727,43.907z M74.877,43.907
	c0-1.293-0.099-2.367-0.293-3.226c-0.195-0.857-0.459-1.543-0.794-2.058c-0.334-0.515-0.73-0.884-1.19-1.108
	c-0.46-0.224-0.954-0.336-1.483-0.336s-1.023,0.112-1.483,0.336c-0.459,0.225-0.856,0.594-1.19,1.108s-0.6,1.2-0.794,2.058
	c-0.195,0.858-0.292,1.933-0.292,3.226c0,1.292,0.097,2.367,0.292,3.225c0.194,0.857,0.46,1.543,0.794,2.059
	c0.334,0.514,0.731,0.883,1.19,1.107c0.46,0.225,0.954,0.336,1.483,0.336s1.023-0.111,1.483-0.336s0.856-0.594,1.19-1.107
	c0.335-0.516,0.599-1.201,0.794-2.059C74.779,46.274,74.877,45.199,74.877,43.907z"/>
<path d="M94.305,37.18c-0.668,0-1.274,0.112-1.817,0.336c-0.543,0.225-1.003,0.594-1.379,1.108s-0.668,1.2-0.877,2.058
	c-0.209,0.858-0.313,1.933-0.313,3.226c0,1.292,0.104,2.367,0.313,3.225s0.515,1.543,0.919,2.059
	c0.403,0.514,0.905,0.883,1.504,1.107s1.288,0.336,2.068,0.336c0.669,0,1.274-0.078,1.817-0.237c0.544-0.158,1.01-0.343,1.4-0.555
	c0.445-0.237,0.835-0.501,1.17-0.791h0.418l1.88,3.255c-0.613,0.391-1.281,0.738-2.006,1.044c-0.641,0.278-1.386,0.522-2.235,0.731
	s-1.804,0.313-2.862,0.313c-3.37,0-5.919-0.86-7.646-2.581c-1.728-1.721-2.591-4.356-2.591-7.906s0.85-6.186,2.549-7.906
	c1.698-1.721,4.122-2.581,7.271-2.581c1.058,0,2.012,0.111,2.861,0.334s1.595,0.459,2.235,0.71c0.725,0.307,1.393,0.655,2.006,1.045
	l-1.88,3.254h-0.418c-0.334-0.29-0.725-0.554-1.17-0.792c-0.391-0.21-0.856-0.396-1.399-0.553
	C95.58,37.26,94.974,37.18,94.305,37.18z"/>
<path d="M113.441,29.329l-0.014-0.007C113.391,29.347,113.364,29.369,113.441,29.329z"/>
<polygon points="113.429,29.321 113.427,29.322 113.441,29.329 "/>
<path d="M113.429,29.321l0.012,0.008C113.527,29.261,113.473,29.292,113.429,29.321z"/>
<polygon points="113.441,29.329 113.427,29.322 113.427,29.322 "/>
<path d="M146.95,37.222h-6.058v17.131h-5.85V37.222h-6.059v-3.761h17.966V37.222z"/>
<path d="M162.827,43.489c0.975,0.167,1.839,0.459,2.591,0.877c0.641,0.391,1.239,0.919,1.797,1.588
	c0.557,0.669,0.835,1.588,0.835,2.758c0,0.78-0.167,1.512-0.501,2.193c-0.334,0.684-0.871,1.281-1.608,1.797
	c-0.738,0.516-1.707,0.92-2.904,1.212s-2.66,0.438-4.387,0.438h-8.356V33.461h8.356c1.504,0,2.799,0.146,3.886,0.439
	c1.086,0.292,1.978,0.689,2.674,1.19s1.205,1.08,1.525,1.734c0.319,0.654,0.48,1.344,0.48,2.067c0,0.947-0.23,1.721-0.689,2.319
	c-0.46,0.6-0.969,1.065-1.525,1.399C164.359,43.002,163.634,43.294,162.827,43.489z M156.142,37.222v4.596h2.507
	c0.836,0,1.497-0.223,1.984-0.668s0.731-0.988,0.731-1.63c0-0.641-0.244-1.184-0.731-1.629s-1.148-0.669-1.984-0.669H156.142z
	 M156.142,45.578v5.015h2.507c1.253,0,2.158-0.236,2.716-0.711c0.557-0.473,0.836-1.072,0.836-1.797
	c0-0.724-0.279-1.322-0.836-1.797c-0.558-0.473-1.463-0.71-2.716-0.71H156.142z"/>
<path d="M181.629,54.395c-6.964,0-10.446-3.495-10.446-10.487c0-3.523,0.829-6.151,2.486-7.886s3.893-2.602,6.706-2.602
	s5.049,0.819,6.706,2.46c1.657,1.64,2.486,4.074,2.486,7.302v0.976l-1.254,1.254h-11.281c0,3.482,1.672,5.223,5.014,5.223
	c0.669,0,1.274-0.084,1.818-0.25c0.543-0.168,1.009-0.362,1.399-0.586c0.445-0.25,0.836-0.528,1.17-0.835h0.418l1.88,3.343
	c-0.613,0.391-1.281,0.738-2.006,1.044c-0.641,0.278-1.386,0.522-2.235,0.731S182.687,54.395,181.629,54.395z M180.375,37.18
	c-0.836,0-1.602,0.364-2.298,1.091c-0.696,0.728-1.045,1.854-1.045,3.38h6.686c0-1.525-0.349-2.652-1.045-3.38
	C181.977,37.544,181.211,37.18,180.375,37.18z"/>
<path d="M208.787,37.222h-6.058v17.131h-5.85V37.222h-6.059v-3.761h17.966V37.222z"/>
<g>
	<path fill="#FF7F00" d="M125.683,33.048c-0.529-1.847-1.274-3.36-2.235-4.542s-2.124-2.051-3.488-2.607
		c-1.365-0.557-3.288-0.835-4.96-0.835c-0.081,0-0.643,0.009-0.643,0.01v-1.76l-2.787,1.834l-1.533,1.01
		c-0.096,0.047-0.074,0.093-0.162,0.153l-1.128,0.686l2.797,1.834l2.812,1.835v-1.826c0-0.004,0.54-0.013,0.607-0.013
		c0.111,0.001,0.421,0.007,0.528,0.016c0.17,0.013,0.44,0.036,0.608,0.07c0.074,0.015,0.201,0.028,0.272,0.046
		c0.318,0.084,0.659,0.207,0.97,0.371c0.641,0.337,1.21,0.922,1.684,1.757c0.474,0.834,0.863,1.951,1.156,3.352
		c0.292,1.4,0.442,3.164,0.442,5.291s-0.146,3.891-0.438,5.291c-0.293,1.4-0.675,2.519-1.148,3.353
		c-0.474,0.835-1.03,1.42-1.671,1.758c-0.641,0.336-1.294,0.504-1.963,0.504s-1.323-0.168-1.964-0.504
		c-0.641-0.338-1.198-0.923-1.671-1.758c-0.475-0.834-0.856-1.952-1.149-3.353c-0.292-1.4-0.438-3.164-0.438-5.291
		s0.146-3.891,0.438-5.291c0.293-1.4,0.675-2.518,1.149-3.352c0.347-0.611-0.325,0.554,0.091-0.162l-4.188-2.794
		c-0.055,0.044-0.108,0.124-0.312,0.376c-0.959,1.184-1.707,2.695-2.235,4.542c-0.529,1.847-0.794,4.074-0.794,6.681
		c0,2.607,0.265,4.834,0.794,6.682c0.528,1.847,1.274,3.36,2.235,4.542s2.124,2.051,3.488,2.607
		c1.365,0.557,2.884,0.835,4.555,0.835s3.189-0.278,4.555-0.835c1.364-0.557,2.527-1.426,3.488-2.607s1.706-2.695,2.235-4.542
		c0.529-1.848,0.793-4.074,0.793-6.682C126.476,37.122,126.212,34.895,125.683,33.048z"/>
</g>
</svg>
